<?xml version="1.0" encoding="UTF-8" standalone="no"?>
<!-- Created with Inkscape (http://www.inkscape.org/) -->

<svg
   width="150mm"
   height="100mm"
   viewBox="0 0 150 100"
   version="1.1"
   id="svg1"
   inkscape:version="1.3 (0e150ed6c4, 2023-07-21)"
   sodipodi:docname="crisp-dm.svg"
   xmlns:inkscape="http://www.inkscape.org/namespaces/inkscape"
   xmlns:sodipodi="http://sodipodi.sourceforge.net/DTD/sodipodi-0.dtd"
   xmlns="http://www.w3.org/2000/svg"
   xmlns:svg="http://www.w3.org/2000/svg">
  <sodipodi:namedview
     id="namedview1"
     pagecolor="#ffffff"
     bordercolor="#000000"
     borderopacity="0.25"
     inkscape:showpageshadow="2"
     inkscape:pageopacity="0.0"
     inkscape:pagecheckerboard="0"
     inkscape:deskcolor="#d1d1d1"
     inkscape:document-units="mm"
     inkscape:zoom="2.8284271"
     inkscape:cx="277.71619"
     inkscape:cy="239.53242"
     inkscape:window-width="1366"
     inkscape:window-height="697"
     inkscape:window-x="-8"
     inkscape:window-y="-8"
     inkscape:window-maximized="1"
     inkscape:current-layer="layer1"
     showguides="false" />
  <defs
     id="defs1">
    <marker
       style="overflow:visible"
       id="marker5"
       refX="0"
       refY="0"
       orient="auto-start-reverse"
       inkscape:stockid="Wide, rounded arrow"
       markerWidth="1"
       markerHeight="1"
       viewBox="0 0 1 1"
       inkscape:isstock="true"
       inkscape:collect="always"
       preserveAspectRatio="xMidYMid">
      <path
         style="fill:none;stroke:context-stroke;stroke-width:1;stroke-linecap:round"
         d="M 3,-3 0,0 3,3"
         transform="rotate(180,0.125,0)"
         sodipodi:nodetypes="ccc"
         id="path5" />
    </marker>
    <marker
       style="overflow:visible"
       id="marker5-9"
       refX="0"
       refY="0"
       orient="auto-start-reverse"
       inkscape:stockid="Wide, rounded arrow"
       markerWidth="1"
       markerHeight="1"
       viewBox="0 0 1 1"
       inkscape:isstock="true"
       inkscape:collect="always"
       preserveAspectRatio="xMidYMid">
      <path
         style="fill:none;stroke:context-stroke;stroke-width:1;stroke-linecap:round"
         d="M 3,-3 0,0 3,3"
         transform="rotate(180,0.125,0)"
         sodipodi:nodetypes="ccc"
         id="path5-4" />
    </marker>
    <marker
       style="overflow:visible"
       id="marker5-9-5"
       refX="0"
       refY="0"
       orient="auto-start-reverse"
       inkscape:stockid="Wide, rounded arrow"
       markerWidth="1"
       markerHeight="1"
       viewBox="0 0 1 1"
       inkscape:isstock="true"
       inkscape:collect="always"
       preserveAspectRatio="xMidYMid">
      <path
         style="fill:none;stroke:context-stroke;stroke-width:1;stroke-linecap:round"
         d="M 3,-3 0,0 3,3"
         transform="rotate(180,0.125,0)"
         sodipodi:nodetypes="ccc"
         id="path5-4-5" />
    </marker>
    <marker
       style="overflow:visible"
       id="marker5-8"
       refX="0"
       refY="0"
       orient="auto-start-reverse"
       inkscape:stockid="Wide, rounded arrow"
       markerWidth="1"
       markerHeight="1"
       viewBox="0 0 1 1"
       inkscape:isstock="true"
       inkscape:collect="always"
       preserveAspectRatio="xMidYMid">
      <path
         style="fill:none;stroke:context-stroke;stroke-width:1;stroke-linecap:round"
         d="M 3,-3 0,0 3,3"
         transform="rotate(180,0.125,0)"
         sodipodi:nodetypes="ccc"
         id="path5-2" />
    </marker>
    <marker
       style="overflow:visible"
       id="marker5-9-1"
       refX="0"
       refY="0"
       orient="auto-start-reverse"
       inkscape:stockid="Wide, rounded arrow"
       markerWidth="1"
       markerHeight="1"
       viewBox="0 0 1 1"
       inkscape:isstock="true"
       inkscape:collect="always"
       preserveAspectRatio="xMidYMid">
      <path
         style="fill:none;stroke:context-stroke;stroke-width:1;stroke-linecap:round"
         d="M 3,-3 0,0 3,3"
         transform="rotate(180,0.125,0)"
         sodipodi:nodetypes="ccc"
         id="path5-4-1" />
    </marker>
    <marker
       style="overflow:visible"
       id="marker5-9-5-1"
       refX="0"
       refY="0"
       orient="auto-start-reverse"
       inkscape:stockid="Wide, rounded arrow"
       markerWidth="1"
       markerHeight="1"
       viewBox="0 0 1 1"
       inkscape:isstock="true"
       inkscape:collect="always"
       preserveAspectRatio="xMidYMid">
      <path
         style="fill:none;stroke:context-stroke;stroke-width:1;stroke-linecap:round"
         d="M 3,-3 0,0 3,3"
         transform="rotate(180,0.125,0)"
         sodipodi:nodetypes="ccc"
         id="path5-4-5-3" />
    </marker>
  </defs>
  <g
     inkscape:label="Layer 1"
     inkscape:groupmode="layer"
     id="layer1">
    <ellipse
       style="fill:#000000;fill-opacity:1;stroke:none;stroke-width:0;stroke-dasharray:none;stroke-opacity:1"
       id="path1"
       cx="419.55002"
       cy="293.61249"
       rx="40"
       ry="0" />
    <ellipse
       style="fill:#000000;fill-opacity:1;stroke:none;stroke-width:0;stroke-dasharray:none;stroke-opacity:1"
       id="path1-6"
       cx="419.55002"
       cy="293.61249"
       rx="40"
       ry="0" />
    <path
       id="rect1"
       d="m 70,7.5 5,2.5 -5,2.5 z"
       sodipodi:nodetypes="cccc" />
    <path
       id="rect1-8"
       d="M 80,92.5 75,90 80,87.5 Z"
       sodipodi:nodetypes="cccc" />
    <path
       id="rect1-8-6"
       d="m 32.5,55 2.5,-5 2.5,5 z"
       sodipodi:nodetypes="cccc" />
    <path
       id="rect1-8-6-6"
       d="m 112.5,45 2.5,5 2.5,-5 z"
       sodipodi:nodetypes="cccc" />
    <circle
       style="fill:none;fill-opacity:1;stroke:#000000;stroke-width:0.5;stroke-dasharray:none;stroke-opacity:1"
       id="path2"
       cx="75"
       cy="50"
       r="40" />
    <rect
       style="fill:#ff1a19;fill-opacity:1;stroke:#000000;stroke-width:0.371434;stroke-dasharray:none;stroke-opacity:1"
       id="rect2"
       width="19.262007"
       height="6.4861856"
       x="52.868999"
       y="25.106365"
       rx="1.1" />
    <g
       id="text2"
       style="font-size:1.7553px;stroke-width:0.276425"
       aria-label="Business&#10;understanding">
      <path
         style="text-align:center;text-anchor:middle"
         d="m 59.789489,27.320962 q 0,0.09514 -0.036,0.167988 -0.036,0.07285 -0.09685,0.119991 -0.072,0.05657 -0.15856,0.08057 -0.08571,0.024 -0.218556,0.024 h -0.452538 v -1.276192 h 0.377972 q 0.139705,0 0.209128,0.01028 0.06942,0.01029 0.132847,0.04285 0.07028,0.03685 0.101993,0.09514 0.03171,0.05742 0.03171,0.13799 0,0.09085 -0.04628,0.155132 -0.04628,0.06342 -0.12342,0.101992 v 0.0069 q 0.129419,0.02657 0.203985,0.113992 0.07457,0.08657 0.07457,0.219412 z m -0.285408,-0.575101 q 0,-0.04628 -0.01543,-0.07799 -0.01543,-0.03171 -0.04971,-0.05143 -0.04028,-0.02314 -0.09771,-0.02828 -0.05742,-0.006 -0.142275,-0.006 H 58.99669 v 0.368545 h 0.219413 q 0.07971,0 0.126847,-0.0077 0.04714,-0.0086 0.08742,-0.03428 0.04028,-0.02571 0.05657,-0.066 0.01714,-0.04114 0.01714,-0.09685 z m 0.10885,0.581958 q 0,-0.07714 -0.02314,-0.122563 -0.02314,-0.04542 -0.08399,-0.07714 -0.04114,-0.02143 -0.100279,-0.02743 -0.05828,-0.0069 -0.142275,-0.0069 H 58.99669 v 0.474822 h 0.224555 q 0.11142,0 0.182558,-0.01114 0.07114,-0.012 0.116563,-0.04285 0.048,-0.03343 0.07028,-0.07628 0.02228,-0.04285 0.02228,-0.110563 z m 1.198198,0.385686 h -0.161132 v -0.106278 q -0.08142,0.06428 -0.155988,0.09856 -0.07457,0.03428 -0.164559,0.03428 -0.150847,0 -0.23484,-0.09171 -0.08399,-0.09257 -0.08399,-0.270838 v -0.621383 h 0.161131 v 0.545103 q 0,0.07285 0.0069,0.125134 0.0069,0.05142 0.02914,0.08828 0.02314,0.03771 0.06,0.05485 0.03685,0.01714 0.107135,0.01714 0.06257,0 0.136275,-0.03257 0.07457,-0.03257 0.138847,-0.08314 v -0.714805 h 0.161132 z m 1.001069,-0.27598 q 0,0.131133 -0.108849,0.215127 -0.107992,0.08399 -0.295693,0.08399 -0.106278,0 -0.195414,-0.02485 -0.08828,-0.02571 -0.148275,-0.05571 v -0.180843 h 0.0086 q 0.07628,0.05742 0.169702,0.09171 0.09342,0.03343 0.17913,0.03343 0.106278,0 0.166273,-0.03428 0.06,-0.03428 0.06,-0.107992 0,-0.05657 -0.03257,-0.08571 -0.03257,-0.02914 -0.125134,-0.04971 -0.03428,-0.0077 -0.08999,-0.018 -0.05485,-0.01028 -0.100279,-0.02228 -0.125991,-0.03343 -0.17913,-0.09771 -0.05228,-0.06514 -0.05228,-0.159417 0,-0.05914 0.024,-0.11142 0.02486,-0.05228 0.07457,-0.09342 0.048,-0.04028 0.121705,-0.06342 0.07457,-0.024 0.166274,-0.024 0.08571,0 0.17313,0.02143 0.08828,0.02057 0.146561,0.05057 v 0.172273 h -0.0086 q -0.06171,-0.04543 -0.149989,-0.07628 -0.08828,-0.03171 -0.17313,-0.03171 -0.08828,0 -0.149132,0.03428 -0.06085,0.03343 -0.06085,0.100278 0,0.05914 0.03685,0.08914 0.036,0.03 0.116563,0.04885 0.04457,0.01028 0.09942,0.02057 0.05571,0.01028 0.09256,0.01886 0.112278,0.02571 0.17313,0.08828 0.06085,0.06342 0.06085,0.167988 z m 0.403685,-0.841653 h -0.181701 v -0.16713 h 0.181701 z m -0.01028,1.117633 h -0.161131 v -0.957359 h 0.161131 z m 1.119346,0 h -0.161131 v -0.545103 q 0,-0.066 -0.0077,-0.12342 -0.0077,-0.05828 -0.02828,-0.09085 -0.02143,-0.036 -0.06171,-0.05314 -0.04028,-0.018 -0.104563,-0.018 -0.066,0 -0.13799,0.03257 -0.07199,0.03257 -0.13799,0.08314 v 0.714805 h -0.161131 v -0.957359 h 0.161131 v 0.106278 q 0.07542,-0.06257 0.155988,-0.09771 0.08057,-0.03514 0.165417,-0.03514 0.155131,0 0.236554,0.09342 0.08142,0.09342 0.08142,0.269123 z m 1.111633,-0.461966 H 63.7312 q 0,0.08828 0.02657,0.154274 0.02657,0.06514 0.07285,0.107135 0.04457,0.04114 0.10542,0.06171 0.06171,0.02057 0.135419,0.02057 0.09771,0 0.196271,-0.03857 0.09942,-0.03943 0.141419,-0.07714 h 0.0086 v 0.175701 q -0.08142,0.03428 -0.166274,0.05743 -0.08485,0.02314 -0.178273,0.02314 -0.238268,0 -0.371972,-0.128562 -0.133705,-0.129419 -0.133705,-0.36683 0,-0.23484 0.127705,-0.37283 0.128562,-0.13799 0.33769,-0.13799 0.1937,0 0.298263,0.113134 0.105421,0.113135 0.105421,0.321405 z m -0.156845,-0.12342 q -8.57e-4,-0.126848 -0.06428,-0.196271 -0.06257,-0.06942 -0.191129,-0.06942 -0.129419,0 -0.206557,0.07628 -0.07628,0.07628 -0.08657,0.189415 z m 1.085063,0.309406 q 0,0.131133 -0.108849,0.215127 -0.107992,0.08399 -0.295692,0.08399 -0.106278,0 -0.195415,-0.02485 -0.08828,-0.02571 -0.148275,-0.05571 v -0.180843 h 0.0086 q 0.07628,0.05742 0.169702,0.09171 0.09342,0.03343 0.17913,0.03343 0.106278,0 0.166273,-0.03428 0.06,-0.03428 0.06,-0.107992 0,-0.05657 -0.03257,-0.08571 -0.03257,-0.02914 -0.125134,-0.04971 -0.03428,-0.0077 -0.08999,-0.018 -0.05485,-0.01028 -0.100279,-0.02228 -0.12599,-0.03343 -0.179129,-0.09771 -0.05228,-0.06514 -0.05228,-0.159417 0,-0.05914 0.024,-0.11142 0.02486,-0.05228 0.07457,-0.09342 0.048,-0.04028 0.121705,-0.06342 0.07457,-0.024 0.166274,-0.024 0.08571,0 0.17313,0.02143 0.08828,0.02057 0.146561,0.05057 v 0.172273 h -0.0086 q -0.06171,-0.04543 -0.149989,-0.07628 -0.08828,-0.03171 -0.17313,-0.03171 -0.08828,0 -0.149132,0.03428 -0.06085,0.03343 -0.06085,0.100278 0,0.05914 0.03686,0.08914 0.036,0.03 0.116563,0.04885 0.04457,0.01028 0.09942,0.02057 0.05571,0.01028 0.09257,0.01886 0.112277,0.02571 0.17313,0.08828 0.06085,0.06342 0.06085,0.167988 z m 0.914504,0 q 0,0.131133 -0.108849,0.215127 -0.107992,0.08399 -0.295692,0.08399 -0.106278,0 -0.195415,-0.02485 -0.08828,-0.02571 -0.148274,-0.05571 v -0.180843 h 0.0086 q 0.07628,0.05742 0.169702,0.09171 0.09342,0.03343 0.17913,0.03343 0.106278,0 0.166273,-0.03428 0.06,-0.03428 0.06,-0.107992 0,-0.05657 -0.03257,-0.08571 -0.03257,-0.02914 -0.125134,-0.04971 -0.03428,-0.0077 -0.08999,-0.018 -0.05485,-0.01028 -0.100278,-0.02228 -0.125991,-0.03343 -0.17913,-0.09771 -0.05228,-0.06514 -0.05228,-0.159417 0,-0.05914 0.024,-0.11142 0.02486,-0.05228 0.07457,-0.09342 0.048,-0.04028 0.121705,-0.06342 0.07457,-0.024 0.166274,-0.024 0.08571,0 0.17313,0.02143 0.08828,0.02057 0.146561,0.05057 v 0.172273 h -0.0086 q -0.06171,-0.04543 -0.149989,-0.07628 -0.08828,-0.03171 -0.17313,-0.03171 -0.08828,0 -0.149132,0.03428 -0.06085,0.03343 -0.06085,0.100278 0,0.05914 0.03686,0.08914 0.036,0.03 0.116563,0.04885 0.04457,0.01028 0.09942,0.02057 0.05571,0.01028 0.09256,0.01886 0.112277,0.02571 0.17313,0.08828 0.06085,0.06342 0.06085,0.167988 z"
         id="path3" />
      <path
         style="text-align:center;text-anchor:middle"
         d="m 57.125256,29.90763 h -0.161131 v -0.106278 q -0.08142,0.06428 -0.155989,0.09856 -0.07457,0.03428 -0.164559,0.03428 -0.150847,0 -0.23484,-0.09171 -0.08399,-0.09257 -0.08399,-0.270838 v -0.621383 h 0.161131 v 0.545103 q 0,0.07285 0.0069,0.125134 0.0069,0.05142 0.02914,0.08828 0.02314,0.03771 0.06,0.05485 0.03685,0.01714 0.107135,0.01714 0.06257,0 0.136276,-0.03257 0.07457,-0.03257 0.138847,-0.08314 v -0.714805 h 0.161131 z m 1.117632,0 h -0.161131 v -0.545103 q 0,-0.066 -0.0077,-0.12342 -0.0077,-0.05828 -0.02828,-0.09085 -0.02143,-0.036 -0.06171,-0.05314 -0.04028,-0.018 -0.104564,-0.018 -0.066,0 -0.13799,0.03257 -0.072,0.03257 -0.13799,0.08314 v 0.714805 h -0.161131 v -0.957359 h 0.161131 v 0.106278 q 0.07542,-0.06257 0.155989,-0.09771 0.08057,-0.03514 0.165416,-0.03514 0.155132,0 0.236554,0.09342 0.08142,0.09342 0.08142,0.269123 z m 1.086778,0 h -0.161131 v -0.100279 q -0.06942,0.06 -0.144847,0.09342 -0.07542,0.03343 -0.163702,0.03343 -0.171416,0 -0.272552,-0.13199 -0.100278,-0.13199 -0.100278,-0.365973 0,-0.121706 0.03428,-0.216841 0.03514,-0.09514 0.09428,-0.161989 0.05828,-0.06514 0.135419,-0.09942 0.07799,-0.03428 0.161131,-0.03428 0.07542,0 0.133704,0.01628 0.05828,0.01543 0.122563,0.04885 v -0.414827 h 0.161131 z m -0.161131,-0.235697 v -0.549389 q -0.06514,-0.02914 -0.116563,-0.04028 -0.05143,-0.01114 -0.112278,-0.01114 -0.135418,0 -0.210841,0.09428 -0.07542,0.09428 -0.07542,0.267409 0,0.170559 0.05828,0.259696 0.05828,0.08828 0.186843,0.08828 0.06857,0 0.138847,-0.03 0.07028,-0.03085 0.131134,-0.07885 z m 1.27962,-0.226269 h -0.705377 q 0,0.08828 0.02657,0.154274 0.02657,0.06514 0.07285,0.107135 0.04457,0.04114 0.105421,0.06171 0.06171,0.02057 0.135418,0.02057 0.09771,0 0.196272,-0.03857 0.09942,-0.03942 0.141418,-0.07714 h 0.0086 v 0.175701 q -0.08142,0.03428 -0.166274,0.05743 -0.08485,0.02314 -0.178273,0.02314 -0.238268,0 -0.371972,-0.128562 -0.133705,-0.129419 -0.133705,-0.36683 0,-0.23484 0.127705,-0.37283 0.128562,-0.13799 0.33769,-0.13799 0.1937,0 0.298263,0.113134 0.105421,0.113135 0.105421,0.321406 z m -0.156845,-0.12342 q -8.57e-4,-0.126848 -0.06428,-0.196271 -0.06257,-0.06942 -0.191129,-0.06942 -0.129419,0 -0.206556,0.07628 -0.07628,0.07628 -0.08657,0.189415 z m 0.998498,-0.196271 h -0.0086 q -0.036,-0.0086 -0.07028,-0.012 -0.03343,-0.0043 -0.07971,-0.0043 -0.07457,0 -0.143989,0.03343 -0.06942,0.03257 -0.133705,0.08485 v 0.679665 h -0.161131 v -0.957359 h 0.161131 v 0.141419 q 0.09599,-0.07714 0.168845,-0.10885 0.07371,-0.03257 0.149989,-0.03257 0.042,0 0.06085,0.0026 0.01886,0.0017 0.05657,0.0077 z m 0.835653,0.505677 q 0,0.131133 -0.108849,0.215127 -0.107992,0.08399 -0.295693,0.08399 -0.106278,0 -0.195414,-0.02485 -0.08828,-0.02571 -0.148275,-0.05571 v -0.180843 h 0.0086 q 0.07628,0.05742 0.169702,0.09171 0.09342,0.03343 0.179129,0.03343 0.106278,0 0.166274,-0.03428 0.06,-0.03428 0.06,-0.107992 0,-0.05657 -0.03257,-0.08571 -0.03257,-0.02914 -0.125133,-0.04971 -0.03428,-0.0077 -0.08999,-0.018 -0.05485,-0.01028 -0.100278,-0.02228 -0.125991,-0.03343 -0.17913,-0.09771 -0.05228,-0.06514 -0.05228,-0.159416 0,-0.05914 0.024,-0.111421 0.02486,-0.05228 0.07457,-0.09342 0.048,-0.04028 0.121706,-0.06342 0.07457,-0.024 0.166273,-0.024 0.08571,0 0.173131,0.02143 0.08828,0.02057 0.14656,0.05057 v 0.172273 h -0.0086 q -0.06171,-0.04543 -0.149989,-0.07628 -0.08828,-0.03171 -0.17313,-0.03171 -0.08828,0 -0.149132,0.03428 -0.06085,0.03343 -0.06085,0.100279 0,0.05914 0.03685,0.08914 0.036,0.03 0.116563,0.04885 0.04457,0.01028 0.09942,0.02057 0.05571,0.01028 0.09257,0.01886 0.112277,0.02571 0.17313,0.08828 0.06085,0.06342 0.06085,0.167988 z m 0.727661,0.267409 q -0.04543,0.012 -0.09942,0.01971 -0.05314,0.0077 -0.09514,0.0077 -0.146561,0 -0.222841,-0.07885 -0.07628,-0.07885 -0.07628,-0.252838 V 29.08569 h -0.108849 v -0.135419 h 0.108849 v -0.275122 h 0.161131 v 0.275122 h 0.332547 v 0.135419 h -0.332547 v 0.436254 q 0,0.07542 0.0034,0.118277 0.0034,0.042 0.024,0.07885 0.01886,0.03428 0.05143,0.05057 0.03343,0.01543 0.101136,0.01543 0.03943,0 0.08228,-0.01114 0.04285,-0.012 0.06171,-0.01971 h 0.0086 z m 0.938503,0.0086 h -0.160274 v -0.101993 q -0.02143,0.01457 -0.05828,0.04114 -0.036,0.02571 -0.07028,0.04114 -0.04028,0.01971 -0.09257,0.03257 -0.05228,0.01371 -0.122562,0.01371 -0.12942,0 -0.219413,-0.08571 -0.08999,-0.08571 -0.08999,-0.218555 0,-0.108849 0.04628,-0.175702 0.04714,-0.06771 0.133704,-0.106277 0.08742,-0.03857 0.209985,-0.05228 0.122563,-0.01371 0.263124,-0.02057 v -0.02486 q 0,-0.05485 -0.01971,-0.09085 -0.01886,-0.036 -0.05485,-0.05657 -0.03428,-0.01971 -0.08228,-0.02657 -0.048,-0.0069 -0.100278,-0.0069 -0.06342,0 -0.141419,0.01714 -0.07799,0.01628 -0.161131,0.048 h -0.0086 v -0.163703 q 0.04714,-0.01286 0.136275,-0.02828 0.08914,-0.01543 0.175702,-0.01543 0.101135,0 0.175701,0.01714 0.07542,0.01628 0.130276,0.05657 0.054,0.03943 0.08228,0.101993 0.02828,0.06257 0.02828,0.155131 z m -0.160274,-0.235697 v -0.266552 q -0.07371,0.0043 -0.173988,0.01286 -0.09942,0.0086 -0.157702,0.02485 -0.06942,0.01971 -0.112278,0.06171 -0.04285,0.04114 -0.04285,0.113992 0,0.08228 0.04971,0.124276 0.04971,0.04114 0.151703,0.04114 0.08485,0 0.155132,-0.03257 0.07028,-0.03343 0.130276,-0.07971 z m 1.27105,0.235697 H 64.74127 v -0.545103 q 0,-0.066 -0.0077,-0.12342 -0.0077,-0.05828 -0.02828,-0.09085 -0.02143,-0.036 -0.06171,-0.05314 -0.04028,-0.018 -0.104564,-0.018 -0.066,0 -0.13799,0.03257 -0.072,0.03257 -0.13799,0.08314 v 0.714805 h -0.161131 v -0.957359 h 0.161131 v 0.106278 q 0.07542,-0.06257 0.155989,-0.09771 0.08056,-0.03514 0.165416,-0.03514 0.155131,0 0.236554,0.09342 0.08142,0.09342 0.08142,0.269123 z m 1.086777,0 h -0.161131 v -0.100279 q -0.06942,0.06 -0.144846,0.09342 -0.07542,0.03343 -0.163702,0.03343 -0.171417,0 -0.272552,-0.13199 -0.100278,-0.13199 -0.100278,-0.365973 0,-0.121706 0.03428,-0.216841 0.03514,-0.09514 0.09428,-0.161989 0.05828,-0.06514 0.135418,-0.09942 0.07799,-0.03428 0.161131,-0.03428 0.07542,0 0.133705,0.01628 0.05828,0.01543 0.122562,0.04885 v -0.414827 h 0.161131 z m -0.161131,-0.235697 v -0.549389 q -0.06514,-0.02914 -0.116563,-0.04028 -0.05142,-0.01114 -0.112277,-0.01114 -0.135419,0 -0.210842,0.09428 -0.07542,0.09428 -0.07542,0.267409 0,0.170559 0.05828,0.259696 0.05828,0.08828 0.186843,0.08828 0.06857,0 0.138847,-0.03 0.07028,-0.03085 0.131133,-0.07885 z m 0.651381,-0.881936 h -0.181701 v -0.16713 h 0.181701 z m -0.01028,1.117633 h -0.161131 v -0.957359 h 0.161131 z m 1.119346,0 h -0.161131 v -0.545103 q 0,-0.066 -0.0077,-0.12342 -0.0077,-0.05828 -0.02828,-0.09085 -0.02143,-0.036 -0.06171,-0.05314 -0.04028,-0.018 -0.104564,-0.018 -0.066,0 -0.13799,0.03257 -0.07199,0.03257 -0.137989,0.08314 v 0.714805 h -0.161132 v -0.957359 h 0.161132 v 0.106278 q 0.07542,-0.06257 0.155988,-0.09771 0.08057,-0.03514 0.165417,-0.03514 0.155131,0 0.236554,0.09342 0.08142,0.09342 0.08142,0.269123 z m 1.086778,-0.108849 q 0,0.24341 -0.110563,0.357402 -0.110564,0.113992 -0.340261,0.113992 -0.07628,0 -0.149132,-0.01114 -0.072,-0.01028 -0.142275,-0.03 v -0.164559 h 0.0086 q 0.03943,0.01543 0.125134,0.03771 0.08571,0.02314 0.171416,0.02314 0.08228,0 0.136276,-0.01971 0.054,-0.01971 0.08399,-0.05485 0.03,-0.03343 0.04285,-0.08057 0.01286,-0.04714 0.01286,-0.105421 v -0.08742 q -0.07285,0.05828 -0.139704,0.08742 -0.066,0.02828 -0.168845,0.02828 -0.171416,0 -0.272551,-0.123419 -0.100279,-0.124277 -0.100279,-0.349689 0,-0.123419 0.03428,-0.212556 0.03514,-0.08999 0.09514,-0.155131 0.05571,-0.06085 0.135419,-0.09428 0.07971,-0.03428 0.15856,-0.03428 0.08314,0 0.138847,0.01714 0.05657,0.01628 0.119134,0.05057 l 0.01029,-0.04114 h 0.150846 z m -0.161131,-0.154275 v -0.521962 q -0.06428,-0.02914 -0.119991,-0.04114 -0.05485,-0.01286 -0.109707,-0.01286 -0.132847,0 -0.209127,0.08914 -0.07628,0.08914 -0.07628,0.258838 0,0.161131 0.05657,0.244268 0.05657,0.08314 0.187701,0.08314 0.07028,0 0.140561,-0.02657 0.07114,-0.02743 0.130276,-0.07285 z"
         id="path4" />
    </g>
    <rect
       style="fill:#ff1a19;fill-opacity:1;stroke:#000000;stroke-width:0.371434;stroke-dasharray:none;stroke-opacity:1"
       id="rect2-5"
       width="19.262007"
       height="6.4861856"
       x="77.869003"
       y="25.106365"
       rx="1"
       ry="1" />
    <g
       id="text2-4"
       style="font-size:1.7553px;stroke-width:0.276425"
       aria-label="Data&#10;understanding">
      <path
         style="text-align:center;text-anchor:middle"
         d="m 86.676779,27.076694 q 0,0.173988 -0.07628,0.315406 -0.07542,0.141418 -0.201413,0.219412 -0.08742,0.054 -0.195415,0.07799 -0.107135,0.024 -0.282836,0.024 h -0.322262 v -1.276192 h 0.318834 q 0.186843,0 0.296549,0.02743 0.110564,0.02657 0.186844,0.07371 0.130276,0.08142 0.203128,0.216841 0.07285,0.135419 0.07285,0.321405 z m -0.177415,-0.0026 q 0,-0.149989 -0.05228,-0.252839 -0.05228,-0.102849 -0.155989,-0.161988 -0.07542,-0.04285 -0.160274,-0.05914 -0.08485,-0.01714 -0.203128,-0.01714 h -0.159416 v 0.984785 h 0.159416 q 0.122563,0 0.213413,-0.018 0.09171,-0.018 0.167988,-0.06685 0.09514,-0.06085 0.142275,-0.160274 0.048,-0.09942 0.048,-0.248553 z m 1.18277,0.639382 H 87.52186 v -0.101993 q -0.02143,0.01457 -0.05828,0.04114 -0.036,0.02571 -0.07028,0.04114 -0.04028,0.01971 -0.09256,0.03257 -0.05228,0.01371 -0.122563,0.01371 -0.129419,0 -0.219412,-0.08571 -0.08999,-0.08571 -0.08999,-0.218555 0,-0.108849 0.04628,-0.175702 0.04714,-0.06771 0.133704,-0.106278 0.08742,-0.03857 0.209985,-0.05228 0.122562,-0.01371 0.263123,-0.02057 v -0.02486 q 0,-0.05485 -0.01971,-0.09085 -0.01886,-0.036 -0.05485,-0.05657 -0.03428,-0.01971 -0.08228,-0.02657 -0.048,-0.0069 -0.100279,-0.0069 -0.06342,0 -0.141418,0.01714 -0.07799,0.01628 -0.161131,0.048 h -0.0086 v -0.163703 q 0.04714,-0.01286 0.136276,-0.02828 0.08914,-0.01543 0.175702,-0.01543 0.101135,0 0.175701,0.01714 0.07542,0.01628 0.130276,0.05657 0.054,0.03943 0.08228,0.101993 0.02828,0.06257 0.02828,0.155131 z M 87.52186,27.477808 v -0.266552 q -0.07371,0.0043 -0.173987,0.01286 -0.09942,0.0086 -0.157703,0.02485 -0.06942,0.01971 -0.112277,0.06171 -0.04285,0.04114 -0.04285,0.113992 0,0.08228 0.04971,0.124276 0.04971,0.04114 0.151703,0.04114 0.08485,0 0.155131,-0.03257 0.07028,-0.03343 0.130276,-0.07971 z m 0.967644,0.227126 q -0.04542,0.012 -0.09942,0.01971 -0.05314,0.0077 -0.09514,0.0077 -0.146561,0 -0.222841,-0.07885 -0.07628,-0.07885 -0.07628,-0.252838 v -0.509106 h -0.108849 v -0.135419 h 0.108849 v -0.275122 h 0.161131 v 0.275122 h 0.332547 v 0.135419 h -0.332547 v 0.436254 q 0,0.07542 0.0034,0.118277 0.0034,0.042 0.024,0.07885 0.01886,0.03428 0.05142,0.05057 0.03343,0.01543 0.101136,0.01543 0.03942,0 0.08228,-0.01114 0.04285,-0.012 0.06171,-0.01971 h 0.0086 z m 0.938503,0.0086 h -0.160274 v -0.101993 q -0.02143,0.01457 -0.05828,0.04114 -0.036,0.02571 -0.07028,0.04114 -0.04028,0.01971 -0.09257,0.03257 -0.05228,0.01371 -0.122563,0.01371 -0.129419,0 -0.219412,-0.08571 -0.08999,-0.08571 -0.08999,-0.218555 0,-0.108849 0.04628,-0.175702 0.04714,-0.06771 0.133704,-0.106278 0.08742,-0.03857 0.209985,-0.05228 0.122562,-0.01371 0.263124,-0.02057 v -0.02486 q 0,-0.05485 -0.01971,-0.09085 -0.01886,-0.036 -0.05485,-0.05657 -0.03428,-0.01971 -0.08228,-0.02657 -0.048,-0.0069 -0.100278,-0.0069 -0.06342,0 -0.141419,0.01714 -0.07799,0.01628 -0.161131,0.048 h -0.0086 v -0.163703 q 0.04714,-0.01286 0.136275,-0.02828 0.08914,-0.01543 0.175702,-0.01543 0.101135,0 0.175701,0.01714 0.07542,0.01628 0.130276,0.05657 0.054,0.03943 0.08228,0.101993 0.02828,0.06257 0.02828,0.155131 z m -0.160274,-0.235697 v -0.266552 q -0.07371,0.0043 -0.173988,0.01286 -0.09942,0.0086 -0.157702,0.02485 -0.06942,0.01971 -0.112278,0.06171 -0.04285,0.04114 -0.04285,0.113992 0,0.08228 0.04971,0.124276 0.04971,0.04114 0.151703,0.04114 0.08485,0 0.155131,-0.03257 0.07028,-0.03343 0.130277,-0.07971 z"
         id="path7" />
      <path
         style="text-align:center;text-anchor:middle"
         d="m 82.125256,29.90763 h -0.161131 v -0.106278 q -0.08142,0.06428 -0.155989,0.09856 -0.07457,0.03428 -0.164559,0.03428 -0.150847,0 -0.23484,-0.09171 -0.08399,-0.09257 -0.08399,-0.270838 v -0.621383 h 0.161131 v 0.545103 q 0,0.07285 0.0069,0.125134 0.0069,0.05142 0.02914,0.08828 0.02314,0.03771 0.06,0.05485 0.03685,0.01714 0.107135,0.01714 0.06257,0 0.136276,-0.03257 0.07457,-0.03257 0.138847,-0.08314 v -0.714805 h 0.161131 z m 1.117632,0 h -0.161131 v -0.545103 q 0,-0.066 -0.0077,-0.12342 -0.0077,-0.05828 -0.02828,-0.09085 -0.02143,-0.036 -0.06171,-0.05314 -0.04028,-0.018 -0.104564,-0.018 -0.066,0 -0.13799,0.03257 -0.072,0.03257 -0.13799,0.08314 v 0.714805 h -0.161131 v -0.957359 h 0.161131 v 0.106278 q 0.07542,-0.06257 0.155989,-0.09771 0.08056,-0.03514 0.165416,-0.03514 0.155132,0 0.236554,0.09342 0.08142,0.09342 0.08142,0.269123 z m 1.086778,0 h -0.161131 v -0.100279 q -0.06942,0.06 -0.144847,0.09342 -0.07542,0.03343 -0.163702,0.03343 -0.171416,0 -0.272552,-0.13199 -0.100278,-0.13199 -0.100278,-0.365973 0,-0.121706 0.03428,-0.216841 0.03514,-0.09514 0.09428,-0.161989 0.05828,-0.06514 0.135419,-0.09942 0.07799,-0.03428 0.161131,-0.03428 0.07542,0 0.133704,0.01628 0.05828,0.01543 0.122563,0.04885 v -0.414827 h 0.161131 z m -0.161131,-0.235697 v -0.549389 q -0.06514,-0.02914 -0.116563,-0.04028 -0.05143,-0.01114 -0.112278,-0.01114 -0.135418,0 -0.210841,0.09428 -0.07542,0.09428 -0.07542,0.267409 0,0.170559 0.05828,0.259696 0.05828,0.08828 0.186843,0.08828 0.06857,0 0.138847,-0.03 0.07028,-0.03085 0.131134,-0.07885 z m 1.27962,-0.226269 h -0.705377 q 0,0.08828 0.02657,0.154274 0.02657,0.06514 0.07285,0.107135 0.04457,0.04114 0.105421,0.06171 0.06171,0.02057 0.135418,0.02057 0.09771,0 0.196272,-0.03857 0.09942,-0.03942 0.141418,-0.07714 h 0.0086 v 0.175701 q -0.08142,0.03428 -0.166274,0.05743 -0.08485,0.02314 -0.178273,0.02314 -0.238268,0 -0.371972,-0.128562 -0.133705,-0.129419 -0.133705,-0.36683 0,-0.23484 0.127705,-0.37283 0.128562,-0.13799 0.33769,-0.13799 0.1937,0 0.298263,0.113134 0.105421,0.113135 0.105421,0.321406 z m -0.156845,-0.12342 q -8.57e-4,-0.126848 -0.06428,-0.196271 -0.06257,-0.06942 -0.191129,-0.06942 -0.129419,0 -0.206556,0.07628 -0.07628,0.07628 -0.08657,0.189415 z m 0.998498,-0.196271 h -0.0086 q -0.036,-0.0086 -0.07028,-0.012 -0.03343,-0.0043 -0.07971,-0.0043 -0.07457,0 -0.143989,0.03343 -0.06942,0.03257 -0.133705,0.08485 v 0.679665 h -0.161131 v -0.957359 h 0.161131 v 0.141419 q 0.09599,-0.07714 0.168845,-0.10885 0.07371,-0.03257 0.149989,-0.03257 0.042,0 0.06085,0.0026 0.01885,0.0017 0.05657,0.0077 z m 0.835653,0.505677 q 0,0.131133 -0.108849,0.215127 -0.107992,0.08399 -0.295693,0.08399 -0.106278,0 -0.195414,-0.02485 -0.08828,-0.02571 -0.148275,-0.05571 v -0.180843 h 0.0086 q 0.07628,0.05742 0.169702,0.09171 0.09342,0.03343 0.179129,0.03343 0.106278,0 0.166274,-0.03428 0.06,-0.03428 0.06,-0.107992 0,-0.05657 -0.03257,-0.08571 -0.03257,-0.02914 -0.125133,-0.04971 -0.03428,-0.0077 -0.08999,-0.018 -0.05485,-0.01028 -0.100278,-0.02228 -0.125991,-0.03343 -0.17913,-0.09771 -0.05228,-0.06514 -0.05228,-0.159416 0,-0.05914 0.024,-0.111421 0.02486,-0.05228 0.07457,-0.09342 0.048,-0.04028 0.121706,-0.06342 0.07457,-0.024 0.166273,-0.024 0.08571,0 0.173131,0.02143 0.08828,0.02057 0.14656,0.05057 v 0.172273 h -0.0086 q -0.06171,-0.04543 -0.149989,-0.07628 -0.08828,-0.03171 -0.17313,-0.03171 -0.08828,0 -0.149132,0.03428 -0.06085,0.03343 -0.06085,0.100279 0,0.05914 0.03685,0.08914 0.036,0.03 0.116563,0.04885 0.04457,0.01028 0.09942,0.02057 0.05571,0.01028 0.09257,0.01886 0.112277,0.02571 0.17313,0.08828 0.06085,0.06342 0.06085,0.167988 z m 0.727661,0.267409 q -0.04542,0.012 -0.09942,0.01971 -0.05314,0.0077 -0.09514,0.0077 -0.146561,0 -0.222841,-0.07885 -0.07628,-0.07885 -0.07628,-0.252838 V 29.08569 h -0.108849 v -0.135419 h 0.108849 v -0.275122 h 0.161131 v 0.275122 h 0.332547 v 0.135419 h -0.332547 v 0.436254 q 0,0.07542 0.0034,0.118277 0.0034,0.042 0.024,0.07885 0.01886,0.03428 0.05142,0.05057 0.03343,0.01543 0.101136,0.01543 0.03942,0 0.08228,-0.01114 0.04285,-0.012 0.06171,-0.01971 h 0.0086 z m 0.938503,0.0086 h -0.160274 v -0.101993 q -0.02143,0.01457 -0.05828,0.04114 -0.036,0.02571 -0.07028,0.04114 -0.04028,0.01971 -0.09257,0.03257 -0.05228,0.01371 -0.122562,0.01371 -0.12942,0 -0.219413,-0.08571 -0.08999,-0.08571 -0.08999,-0.218555 0,-0.108849 0.04628,-0.175702 0.04714,-0.06771 0.133704,-0.106277 0.08742,-0.03857 0.209985,-0.05228 0.122563,-0.01371 0.263124,-0.02057 v -0.02486 q 0,-0.05485 -0.01971,-0.09085 -0.01886,-0.036 -0.05485,-0.05657 -0.03428,-0.01971 -0.08228,-0.02657 -0.048,-0.0069 -0.100278,-0.0069 -0.06342,0 -0.141419,0.01714 -0.07799,0.01628 -0.161131,0.048 h -0.0086 v -0.163703 q 0.04714,-0.01286 0.136275,-0.02828 0.08914,-0.01543 0.175702,-0.01543 0.101135,0 0.175701,0.01714 0.07542,0.01628 0.130276,0.05657 0.054,0.03943 0.08228,0.101993 0.02828,0.06257 0.02828,0.155131 z m -0.160274,-0.235697 v -0.266552 q -0.07371,0.0043 -0.173988,0.01286 -0.09942,0.0086 -0.157702,0.02485 -0.06942,0.01971 -0.112278,0.06171 -0.04285,0.04114 -0.04285,0.113992 0,0.08228 0.04971,0.124276 0.04971,0.04114 0.151703,0.04114 0.08485,0 0.155132,-0.03257 0.07028,-0.03343 0.130276,-0.07971 z m 1.27105,0.235697 H 89.74127 v -0.545103 q 0,-0.066 -0.0077,-0.12342 -0.0077,-0.05828 -0.02828,-0.09085 -0.02143,-0.036 -0.06171,-0.05314 -0.04028,-0.018 -0.104564,-0.018 -0.066,0 -0.13799,0.03257 -0.072,0.03257 -0.13799,0.08314 v 0.714805 h -0.161131 v -0.957359 h 0.161131 v 0.106278 q 0.07542,-0.06257 0.155989,-0.09771 0.08056,-0.03514 0.165416,-0.03514 0.155131,0 0.236554,0.09342 0.08142,0.09342 0.08142,0.269123 z m 1.086777,0 h -0.161131 v -0.100279 q -0.06942,0.06 -0.144846,0.09342 -0.07542,0.03343 -0.163702,0.03343 -0.171417,0 -0.272552,-0.13199 -0.100278,-0.13199 -0.100278,-0.365973 0,-0.121706 0.03428,-0.216841 0.03514,-0.09514 0.09428,-0.161989 0.05828,-0.06514 0.135418,-0.09942 0.07799,-0.03428 0.161131,-0.03428 0.07542,0 0.133705,0.01628 0.05828,0.01543 0.122562,0.04885 v -0.414827 h 0.161131 z m -0.161131,-0.235697 v -0.549389 q -0.06514,-0.02914 -0.116563,-0.04028 -0.05142,-0.01114 -0.112277,-0.01114 -0.135419,0 -0.210842,0.09428 -0.07542,0.09428 -0.07542,0.267409 0,0.170559 0.05828,0.259696 0.05828,0.08828 0.186843,0.08828 0.06857,0 0.138847,-0.03 0.07028,-0.03085 0.131133,-0.07885 z m 0.651381,-0.881936 h -0.181701 v -0.16713 h 0.181701 z m -0.01028,1.117633 h -0.161131 v -0.957359 h 0.161131 z m 1.119346,0 h -0.161131 v -0.545103 q 0,-0.066 -0.0077,-0.12342 -0.0077,-0.05828 -0.02828,-0.09085 -0.02143,-0.036 -0.06171,-0.05314 -0.04028,-0.018 -0.104564,-0.018 -0.066,0 -0.13799,0.03257 -0.07199,0.03257 -0.137989,0.08314 v 0.714805 h -0.161132 v -0.957359 h 0.161132 v 0.106278 q 0.07542,-0.06257 0.155988,-0.09771 0.08057,-0.03514 0.165417,-0.03514 0.155131,0 0.236554,0.09342 0.08142,0.09342 0.08142,0.269123 z m 1.086778,-0.108849 q 0,0.24341 -0.110563,0.357402 -0.110564,0.113992 -0.340261,0.113992 -0.07628,0 -0.149132,-0.01114 -0.072,-0.01028 -0.142275,-0.03 v -0.164559 h 0.0086 q 0.03943,0.01543 0.125134,0.03771 0.08571,0.02314 0.171416,0.02314 0.08228,0 0.136276,-0.01971 0.054,-0.01971 0.08399,-0.05485 0.03,-0.03343 0.04285,-0.08057 0.01286,-0.04714 0.01286,-0.105421 v -0.08742 q -0.07285,0.05828 -0.139704,0.08742 -0.066,0.02828 -0.168845,0.02828 -0.171416,0 -0.272551,-0.123419 -0.100279,-0.124277 -0.100279,-0.349689 0,-0.123419 0.03428,-0.212556 0.03514,-0.08999 0.09514,-0.155131 0.05571,-0.06085 0.135419,-0.09428 0.07971,-0.03428 0.15856,-0.03428 0.08314,0 0.138847,0.01714 0.05657,0.01628 0.119134,0.05057 l 0.01029,-0.04114 h 0.150846 z m -0.161131,-0.154275 v -0.521962 q -0.06428,-0.02914 -0.119991,-0.04114 -0.05485,-0.01286 -0.109707,-0.01286 -0.132847,0 -0.209127,0.08914 -0.07628,0.08914 -0.07628,0.258838 0,0.161131 0.05657,0.244268 0.05657,0.08314 0.187701,0.08314 0.07028,0 0.140561,-0.02657 0.07114,-0.02743 0.130276,-0.07285 z"
         id="path8" />
    </g>
    <rect
       style="fill:#ff1a19;fill-opacity:1;stroke:#000000;stroke-width:0.371434;stroke-dasharray:none;stroke-opacity:1"
       id="rect2-5-2"
       width="19.262007"
       height="6.4861856"
       x="90.369003"
       y="46.757"
       rx="1"
       ry="1" />
    <path
       style="font-size:1.7553px;text-align:center;text-anchor:middle;stroke-width:0.276425"
       d="m 93.775884,49.829105 q 0,0.173987 -0.07628,0.315406 -0.07542,0.141418 -0.201413,0.219412 -0.08742,0.054 -0.195415,0.07799 -0.107135,0.024 -0.282836,0.024 h -0.322262 v -1.276193 h 0.318834 q 0.186843,0 0.296549,0.02743 0.110564,0.02657 0.186844,0.07371 0.130276,0.08142 0.203128,0.216841 0.07285,0.135419 0.07285,0.321405 z m -0.177416,-0.0026 q 0,-0.149989 -0.05228,-0.252839 -0.05228,-0.102849 -0.155988,-0.161988 -0.07542,-0.04285 -0.160274,-0.05914 -0.08485,-0.01714 -0.203128,-0.01714 h -0.159417 v 0.984785 h 0.159417 q 0.122562,0 0.213412,-0.018 0.09171,-0.018 0.167988,-0.06685 0.09514,-0.06085 0.142275,-0.160274 0.048,-0.09942 0.048,-0.248553 z m 1.182771,0.639382 h -0.160274 v -0.101993 q -0.02143,0.01457 -0.05828,0.04114 -0.036,0.02571 -0.07028,0.04114 -0.04028,0.01971 -0.09256,0.03257 -0.05228,0.01371 -0.122563,0.01371 -0.129419,0 -0.219412,-0.08571 -0.08999,-0.08571 -0.08999,-0.218555 0,-0.108849 0.04628,-0.175702 0.04714,-0.06771 0.133704,-0.106278 0.08742,-0.03857 0.209985,-0.05228 0.122562,-0.01371 0.263124,-0.02057 v -0.02486 q 0,-0.05485 -0.01971,-0.09085 -0.01886,-0.036 -0.05485,-0.05657 -0.03428,-0.01971 -0.08228,-0.02657 -0.048,-0.0069 -0.100278,-0.0069 -0.06342,0 -0.141419,0.01714 -0.07799,0.01628 -0.161131,0.048 h -0.0086 v -0.163702 q 0.04714,-0.01286 0.136276,-0.02828 0.08914,-0.01543 0.175702,-0.01543 0.101135,0 0.175701,0.01714 0.07542,0.01628 0.130276,0.05657 0.054,0.03943 0.08228,0.101992 0.02828,0.06257 0.02828,0.155132 z m -0.160274,-0.235697 v -0.266552 q -0.07371,0.0043 -0.173988,0.01286 -0.09942,0.0086 -0.157702,0.02486 -0.06942,0.01971 -0.112278,0.06171 -0.04285,0.04114 -0.04285,0.113992 0,0.08228 0.04971,0.124276 0.04971,0.04114 0.151703,0.04114 0.08485,0 0.155131,-0.03257 0.07028,-0.03343 0.130277,-0.07971 z m 0.967643,0.227126 q -0.04542,0.012 -0.09942,0.01971 -0.05314,0.0077 -0.09514,0.0077 -0.146561,0 -0.222841,-0.07885 -0.07628,-0.07885 -0.07628,-0.252839 v -0.509105 h -0.108849 v -0.135419 h 0.108849 v -0.275123 h 0.161131 v 0.275123 h 0.332547 v 0.135419 h -0.332547 v 0.436254 q 0,0.07542 0.0034,0.118277 0.0034,0.042 0.024,0.07885 0.01885,0.03428 0.05142,0.05057 0.03343,0.01543 0.101136,0.01543 0.03943,0 0.08228,-0.01114 0.04285,-0.012 0.06171,-0.01971 h 0.0086 z m 0.938503,0.0086 h -0.160274 v -0.101993 q -0.02143,0.01457 -0.05828,0.04114 -0.036,0.02571 -0.07028,0.04114 -0.04028,0.01971 -0.09257,0.03257 -0.05228,0.01371 -0.122562,0.01371 -0.12942,0 -0.219413,-0.08571 -0.08999,-0.08571 -0.08999,-0.218555 0,-0.108849 0.04628,-0.175702 0.04714,-0.06771 0.133704,-0.106278 0.08742,-0.03857 0.209985,-0.05228 0.122563,-0.01371 0.263124,-0.02057 v -0.02486 q 0,-0.05485 -0.01971,-0.09085 -0.01886,-0.036 -0.05485,-0.05657 -0.03428,-0.01971 -0.08228,-0.02657 -0.048,-0.0069 -0.100278,-0.0069 -0.06342,0 -0.141419,0.01714 -0.07799,0.01628 -0.161131,0.048 h -0.0086 v -0.163702 q 0.04714,-0.01286 0.136275,-0.02828 0.08914,-0.01543 0.175702,-0.01543 0.101135,0 0.175701,0.01714 0.07542,0.01628 0.130276,0.05657 0.054,0.03943 0.08228,0.101992 0.02828,0.06257 0.02828,0.155132 z m -0.160274,-0.235697 v -0.266552 q -0.07371,0.0043 -0.173988,0.01286 -0.09942,0.0086 -0.157702,0.02486 -0.06942,0.01971 -0.112278,0.06171 -0.04285,0.04114 -0.04285,0.113992 0,0.08228 0.04971,0.124276 0.04971,0.04114 0.151703,0.04114 0.08485,0 0.155132,-0.03257 0.07028,-0.03343 0.130276,-0.07971 z m 1.930144,-0.254553 q 0,0.116563 -0.03343,0.213413 -0.03343,0.09599 -0.09428,0.162845 -0.05657,0.06342 -0.133704,0.09856 -0.07628,0.03428 -0.161988,0.03428 -0.07457,0 -0.135419,-0.01628 -0.06,-0.01629 -0.122562,-0.05057 v 0.401114 h -0.161131 v -1.310476 h 0.161131 v 0.100279 q 0.06428,-0.054 0.143989,-0.08999 0.08057,-0.03685 0.171416,-0.03685 0.17313,0 0.269123,0.131133 0.09685,0.130276 0.09685,0.362545 z m -0.166273,0.0043 q 0,-0.17313 -0.05914,-0.258838 -0.05914,-0.08571 -0.181701,-0.08571 -0.06942,0 -0.139704,0.03 -0.07028,0.03 -0.134561,0.07885 v 0.542532 q 0.06857,0.03086 0.11742,0.042 0.04971,0.01114 0.112277,0.01114 0.134562,0 0.209985,-0.09085 0.07542,-0.09085 0.07542,-0.269123 z m 1.014782,-0.295692 h -0.0086 q -0.036,-0.0086 -0.07028,-0.012 -0.03343,-0.0043 -0.07971,-0.0043 -0.07457,0 -0.14399,0.03343 -0.06942,0.03257 -0.133704,0.08485 v 0.679665 h -0.161131 v -0.957359 h 0.161131 v 0.141418 q 0.09599,-0.07714 0.168844,-0.108849 0.07371,-0.03257 0.14999,-0.03257 0.042,0 0.06085,0.0026 0.01886,0.0017 0.05657,0.0077 z m 0.95307,0.319691 h -0.705374 q 0,0.08828 0.02657,0.154274 0.02657,0.06514 0.07285,0.107135 0.04457,0.04114 0.105421,0.06171 0.06171,0.02057 0.135418,0.02057 0.09771,0 0.196272,-0.03857 0.09942,-0.03943 0.141421,-0.07714 h 0.009 v 0.175701 q -0.08143,0.03428 -0.166276,0.05742 -0.08485,0.02314 -0.178273,0.02314 -0.238268,0 -0.371972,-0.128562 -0.133705,-0.129419 -0.133705,-0.366831 0,-0.234839 0.127705,-0.372829 0.128562,-0.13799 0.33769,-0.13799 0.1937,0 0.298264,0.113134 0.105417,0.113135 0.105417,0.321405 z m -0.156842,-0.12342 q -8.57e-4,-0.126848 -0.06428,-0.196271 -0.06257,-0.06942 -0.191129,-0.06942 -0.129419,0 -0.206556,0.07628 -0.07628,0.07628 -0.08657,0.189415 z m 1.243622,0.09514 q 0,0.116563 -0.0334,0.213413 -0.0334,0.09599 -0.0943,0.162845 -0.0566,0.06342 -0.13371,0.09856 -0.0763,0.03428 -0.16199,0.03428 -0.0746,0 -0.13542,-0.01628 -0.06,-0.01629 -0.12256,-0.05057 v 0.401114 h -0.16113 v -1.310476 h 0.16113 v 0.100279 q 0.0643,-0.054 0.14399,-0.08999 0.0806,-0.03685 0.17142,-0.03685 0.17313,0 0.26912,0.131133 0.0969,0.130276 0.0969,0.362545 z m -0.16627,0.0043 q 0,-0.17313 -0.0591,-0.258838 -0.0591,-0.08571 -0.1817,-0.08571 -0.0694,0 -0.13971,0.03 -0.0703,0.03 -0.13456,0.07885 v 0.542532 q 0.0686,0.03086 0.11742,0.042 0.0497,0.01114 0.11228,0.01114 0.13456,0 0.20998,-0.09085 0.0754,-0.09085 0.0754,-0.269123 z m 1.16134,0.485965 h -0.16027 v -0.101993 q -0.0214,0.01457 -0.0583,0.04114 -0.036,0.02571 -0.0703,0.04114 -0.0403,0.01971 -0.0926,0.03257 -0.0523,0.01371 -0.12256,0.01371 -0.12942,0 -0.21941,-0.08571 -0.09,-0.08571 -0.09,-0.218555 0,-0.108849 0.0463,-0.175702 0.0471,-0.06771 0.13371,-0.106278 0.0874,-0.03857 0.20998,-0.05228 0.12257,-0.01371 0.26313,-0.02057 v -0.02486 q 0,-0.05485 -0.0197,-0.09085 -0.0189,-0.036 -0.0549,-0.05657 -0.0343,-0.01971 -0.0823,-0.02657 -0.048,-0.0069 -0.10028,-0.0069 -0.0634,0 -0.14142,0.01714 -0.078,0.01628 -0.16113,0.048 h -0.009 v -0.163702 q 0.0471,-0.01286 0.13628,-0.02828 0.0891,-0.01543 0.1757,-0.01543 0.10114,0 0.1757,0.01714 0.0754,0.01628 0.13028,0.05657 0.054,0.03943 0.0823,0.101992 0.0283,0.06257 0.0283,0.155132 z m -0.16027,-0.235697 v -0.266552 q -0.0737,0.0043 -0.17399,0.01286 -0.0994,0.0086 -0.1577,0.02486 -0.0694,0.01971 -0.11228,0.06171 -0.0429,0.04114 -0.0429,0.113992 0,0.08228 0.0497,0.124276 0.0497,0.04114 0.1517,0.04114 0.0849,0 0.15513,-0.03257 0.0703,-0.03343 0.13028,-0.07971 z m 1.06792,-0.54596 h -0.009 q -0.036,-0.0086 -0.0703,-0.012 -0.0334,-0.0043 -0.0797,-0.0043 -0.0746,0 -0.14399,0.03343 -0.0694,0.03257 -0.1337,0.08485 v 0.679665 h -0.16114 v -0.957359 h 0.16114 v 0.141418 q 0.096,-0.07714 0.16884,-0.108849 0.0737,-0.03257 0.14999,-0.03257 0.042,0 0.0609,0.0026 0.0189,0.0017 0.0566,0.0077 z m 0.86479,0.781657 h -0.16027 v -0.101993 q -0.0214,0.01457 -0.0583,0.04114 -0.036,0.02571 -0.0703,0.04114 -0.0403,0.01971 -0.0926,0.03257 -0.0523,0.01371 -0.12256,0.01371 -0.12942,0 -0.21941,-0.08571 -0.09,-0.08571 -0.09,-0.218555 0,-0.108849 0.0463,-0.175702 0.0471,-0.06771 0.1337,-0.106278 0.0874,-0.03857 0.20999,-0.05228 0.12256,-0.01371 0.26312,-0.02057 v -0.02486 q 0,-0.05485 -0.0197,-0.09085 -0.0189,-0.036 -0.0549,-0.05657 -0.0343,-0.01971 -0.0823,-0.02657 -0.048,-0.0069 -0.10027,-0.0069 -0.0634,0 -0.14142,0.01714 -0.078,0.01628 -0.16113,0.048 h -0.009 v -0.163702 q 0.0471,-0.01286 0.13628,-0.02828 0.0891,-0.01543 0.1757,-0.01543 0.10114,0 0.1757,0.01714 0.0754,0.01628 0.13028,0.05657 0.054,0.03943 0.0823,0.101992 0.0283,0.06257 0.0283,0.155132 z m -0.16027,-0.235697 v -0.266552 q -0.0737,0.0043 -0.17399,0.01286 -0.0994,0.0086 -0.1577,0.02486 -0.0694,0.01971 -0.11228,0.06171 -0.0428,0.04114 -0.0428,0.113992 0,0.08228 0.0497,0.124276 0.0497,0.04114 0.1517,0.04114 0.0849,0 0.15513,-0.03257 0.0703,-0.03343 0.13028,-0.07971 z m 0.96764,0.227126 q -0.0454,0.012 -0.0994,0.01971 -0.0531,0.0077 -0.0951,0.0077 -0.14656,0 -0.22284,-0.07885 -0.0763,-0.07885 -0.0763,-0.252839 v -0.509105 h -0.10885 v -0.135419 h 0.10885 v -0.275123 h 0.16113 v 0.275123 h 0.33255 v 0.135419 h -0.33255 v 0.436254 q 0,0.07542 0.003,0.118277 0.003,0.042 0.024,0.07885 0.0189,0.03428 0.0514,0.05057 0.0334,0.01543 0.10113,0.01543 0.0394,0 0.0823,-0.01114 0.0429,-0.012 0.0617,-0.01971 h 0.009 z m 0.36769,-1.109062 h -0.1817 v -0.16713 h 0.1817 z m -0.0103,1.117633 h -0.16113 v -0.957359 h 0.16113 z m 1.13478,-0.478251 q 0,0.233983 -0.11999,0.369402 -0.11999,0.135418 -0.32141,0.135418 -0.20313,0 -0.32312,-0.135418 -0.11913,-0.135419 -0.11913,-0.369402 0,-0.233983 0.11913,-0.369402 0.11999,-0.136275 0.32312,-0.136275 0.20142,0 0.32141,0.136275 0.11999,0.135419 0.11999,0.369402 z m -0.16628,0 q 0,-0.185986 -0.0728,-0.27598 -0.0729,-0.09085 -0.20227,-0.09085 -0.13113,0 -0.20398,0.09085 -0.072,0.08999 -0.072,0.27598 0,0.179987 0.0729,0.273409 0.0729,0.09256 0.20313,0.09256 0.12856,0 0.20142,-0.09171 0.0737,-0.09257 0.0737,-0.274266 z m 1.2162,0.478251 h -0.16113 v -0.545103 q 0,-0.066 -0.008,-0.12342 -0.008,-0.05828 -0.0283,-0.09085 -0.0214,-0.036 -0.0617,-0.05314 -0.0403,-0.018 -0.10456,-0.018 -0.066,0 -0.13799,0.03257 -0.072,0.03257 -0.13799,0.08314 v 0.714805 h -0.16113 v -0.957359 h 0.16113 v 0.106278 q 0.0754,-0.06257 0.15599,-0.09771 0.0806,-0.03514 0.16541,-0.03514 0.15514,0 0.23656,0.09342 0.0814,0.09342 0.0814,0.269124 z"
       id="text2-4-1"
       aria-label="Data preparation" />
    <rect
       style="fill:#ff1a19;fill-opacity:1;stroke:#000000;stroke-width:0.371434;stroke-dasharray:none;stroke-opacity:1"
       id="rect2-5-2-9"
       width="19.262007"
       height="6.4861856"
       x="40.368999"
       y="46.757"
       rx="1.1" />
    <path
       style="font-size:1.7553px;text-align:center;text-anchor:middle;stroke-width:0.276425"
       d="m 45.943016,49.853534 q 0,0.173988 -0.07628,0.315406 -0.07542,0.141418 -0.201414,0.219412 -0.08742,0.054 -0.195414,0.078 -0.107135,0.024 -0.282836,0.024 h -0.322263 v -1.276192 h 0.318834 q 0.186844,0 0.29655,0.02743 0.110563,0.02657 0.186843,0.07371 0.130277,0.08142 0.203128,0.216841 0.07285,0.135419 0.07285,0.321405 z m -0.177415,-0.0026 q 0,-0.149989 -0.05228,-0.252838 -0.05228,-0.10285 -0.155989,-0.161989 -0.07542,-0.04285 -0.160274,-0.05914 -0.08485,-0.01714 -0.203128,-0.01714 h -0.159417 v 0.984785 h 0.159417 q 0.122563,0 0.213413,-0.018 0.09171,-0.018 0.167988,-0.06685 0.09514,-0.06085 0.142275,-0.160274 0.048,-0.09942 0.048,-0.248553 z m 1.240195,0.177416 h -0.705377 q 0,0.08828 0.02657,0.154274 0.02657,0.06514 0.07285,0.107135 0.04457,0.04114 0.105421,0.06171 0.06171,0.02057 0.135418,0.02057 0.09771,0 0.196272,-0.03857 0.09942,-0.03943 0.141418,-0.07714 h 0.0086 v 0.175702 q -0.08142,0.03428 -0.166274,0.05742 -0.08485,0.02314 -0.178272,0.02314 -0.238269,0 -0.371973,-0.128562 -0.133705,-0.129419 -0.133705,-0.36683 0,-0.23484 0.127705,-0.37283 0.128562,-0.13799 0.33769,-0.13799 0.1937,0 0.298264,0.113135 0.105421,0.113134 0.105421,0.321405 z m -0.156846,-0.12342 q -8.57e-4,-0.126848 -0.06428,-0.196271 -0.06257,-0.06942 -0.191129,-0.06942 -0.129419,0 -0.206556,0.07628 -0.07628,0.07628 -0.08657,0.189414 z m 1.243623,0.09514 q 0,0.116563 -0.03343,0.213413 -0.03343,0.09599 -0.09428,0.162845 -0.05657,0.06342 -0.133704,0.09857 -0.07628,0.03428 -0.161988,0.03428 -0.07457,0 -0.135419,-0.01628 -0.06,-0.01628 -0.122563,-0.05057 v 0.401113 h -0.161131 v -1.310475 h 0.161131 v 0.100278 q 0.06428,-0.054 0.14399,-0.08999 0.08057,-0.03685 0.171416,-0.03685 0.17313,0 0.269123,0.131133 0.09685,0.130276 0.09685,0.362545 z m -0.166273,0.0043 q 0,-0.173131 -0.05914,-0.258839 -0.05914,-0.08571 -0.181701,-0.08571 -0.06942,0 -0.139704,0.03 -0.07028,0.03 -0.134562,0.07885 v 0.542531 q 0.06857,0.03086 0.11742,0.042 0.04971,0.01114 0.112278,0.01114 0.134562,0 0.209985,-0.09085 0.07542,-0.09085 0.07542,-0.269123 z m 0.580243,0.485964 h -0.161131 v -1.333617 h 0.161131 z m 1.134774,-0.478251 q 0,0.233983 -0.119991,0.369402 -0.119991,0.135418 -0.321405,0.135418 -0.203128,0 -0.323119,-0.135418 -0.119135,-0.135419 -0.119135,-0.369402 0,-0.233983 0.119135,-0.369401 0.119991,-0.136276 0.323119,-0.136276 0.201414,0 0.321405,0.136276 0.119991,0.135418 0.119991,0.369401 z m -0.166274,0 q 0,-0.185986 -0.07285,-0.275979 -0.07285,-0.09085 -0.202271,-0.09085 -0.131133,0 -0.203985,0.09085 -0.072,0.08999 -0.072,0.275979 0,0.179987 0.07285,0.273409 0.07285,0.09257 0.203128,0.09257 0.128562,0 0.201414,-0.09171 0.07371,-0.09257 0.07371,-0.274266 z m 1.230768,-0.479107 -0.558817,1.310475 h -0.172273 l 0.178273,-0.399399 -0.381401,-0.911076 h 0.174845 l 0.293978,0.709662 0.29655,-0.709662 z m 1.607882,0.957358 h -0.161132 v -0.545103 q 0,-0.06171 -0.006,-0.119134 -0.0051,-0.05742 -0.02314,-0.09171 -0.01971,-0.03685 -0.05657,-0.05571 -0.03685,-0.01886 -0.106277,-0.01886 -0.06771,0 -0.135419,0.03428 -0.06771,0.03343 -0.135419,0.08571 0.0026,0.01971 0.0043,0.04628 0.0017,0.02571 0.0017,0.05143 v 0.612812 h -0.161131 v -0.545103 q 0,-0.06342 -0.006,-0.119991 -0.0051,-0.05743 -0.02314,-0.09171 -0.01971,-0.03685 -0.05657,-0.05485 -0.03685,-0.01886 -0.106278,-0.01886 -0.066,0 -0.132848,0.03257 -0.066,0.03257 -0.13199,0.08314 v 0.714805 h -0.161131 v -0.957358 h 0.161131 v 0.106277 q 0.07542,-0.06257 0.149989,-0.09771 0.07542,-0.03514 0.160274,-0.03514 0.09771,0 0.165416,0.04114 0.06857,0.04114 0.101993,0.113992 0.09771,-0.08228 0.178273,-0.118278 0.08057,-0.03685 0.172273,-0.03685 0.157703,0 0.232268,0.09599 0.07542,0.09514 0.07542,0.266552 z m 1.111632,-0.461966 h -0.705377 q 0,0.08828 0.02657,0.154274 0.02657,0.06514 0.07285,0.107135 0.04457,0.04114 0.105421,0.06171 0.06171,0.02057 0.135418,0.02057 0.09771,0 0.196272,-0.03857 0.09942,-0.03943 0.141418,-0.07714 h 0.0086 v 0.175702 q -0.08142,0.03428 -0.166274,0.05742 -0.08485,0.02314 -0.178273,0.02314 -0.238268,0 -0.371972,-0.128562 -0.133705,-0.129419 -0.133705,-0.36683 0,-0.23484 0.127705,-0.37283 0.128562,-0.13799 0.33769,-0.13799 0.1937,0 0.298264,0.113135 0.10542,0.113134 0.10542,0.321405 z m -0.156845,-0.12342 q -8.57e-4,-0.126848 -0.06428,-0.196271 -0.06257,-0.06942 -0.191129,-0.06942 -0.129419,0 -0.206556,0.07628 -0.07628,0.07628 -0.08657,0.189414 z m 1.201626,0.585386 h -0.161131 v -0.545103 q 0,-0.066 -0.0077,-0.123419 -0.0077,-0.05828 -0.02828,-0.09085 -0.02143,-0.036 -0.06171,-0.05314 -0.04028,-0.018 -0.104564,-0.018 -0.066,0 -0.137989,0.03257 -0.072,0.03257 -0.13799,0.08314 v 0.714805 h -0.161131 v -0.957358 h 0.161131 v 0.106277 q 0.07542,-0.06257 0.155988,-0.09771 0.08057,-0.03514 0.165417,-0.03514 0.155131,0 0.236554,0.09342 0.08142,0.09342 0.08142,0.269123 z m 0.80737,-0.0086 q -0.04543,0.012 -0.09942,0.01971 -0.05314,0.0077 -0.09514,0.0077 -0.146561,0 -0.222841,-0.07885 -0.07628,-0.07885 -0.07628,-0.252838 v -0.509106 h -0.108849 v -0.135418 h 0.108849 v -0.275123 h 0.161131 v 0.275123 h 0.332547 v 0.135418 h -0.332547 v 0.436254 q 0,0.07542 0.0034,0.118277 0.0034,0.042 0.024,0.07885 0.01886,0.03428 0.05143,0.05057 0.03343,0.01543 0.101136,0.01543 0.03943,0 0.08228,-0.01114 0.04285,-0.012 0.06171,-0.01971 h 0.0086 z"
       id="text2-4-1-4"
       aria-label="Deployment" />
    <rect
       style="fill:#ff1a19;fill-opacity:1;stroke:#000000;stroke-width:0.371434;stroke-dasharray:none;stroke-opacity:1"
       id="rect2-5-7"
       width="19.262007"
       height="6.4861856"
       x="77.869003"
       y="68.407639"
       rx="1.1" />
    <path
       style="font-size:1.7553px;text-align:center;text-anchor:middle;stroke-width:0.276425"
       d="M 84.885482,72.136261 H 84.71578 v -1.099634 l -0.354831,0.748231 h -0.101135 l -0.35226,-0.748231 v 1.099634 h -0.15856 v -1.276192 h 0.231411 l 0.340261,0.710519 0.329119,-0.710519 h 0.235697 z m 1.145916,-0.478251 q 0,0.233983 -0.119991,0.369402 -0.119991,0.135418 -0.321405,0.135418 -0.203128,0 -0.323119,-0.135418 -0.119134,-0.135419 -0.119134,-0.369402 0,-0.233983 0.119134,-0.369401 0.119991,-0.136276 0.323119,-0.136276 0.201414,0 0.321405,0.136276 0.119991,0.135418 0.119991,0.369401 z m -0.166273,0 q 0,-0.185986 -0.07285,-0.27598 -0.07285,-0.09085 -0.202271,-0.09085 -0.131133,0 -0.203985,0.09085 -0.072,0.08999 -0.072,0.27598 0,0.179987 0.07285,0.273409 0.07285,0.09256 0.203128,0.09256 0.128562,0 0.201414,-0.09171 0.07371,-0.09257 0.07371,-0.274266 z m 1.192198,0.478251 h -0.161131 v -0.100278 q -0.06942,0.06 -0.144847,0.09342 -0.07542,0.03343 -0.163702,0.03343 -0.171416,0 -0.272551,-0.13199 -0.100279,-0.13199 -0.100279,-0.365973 0,-0.121705 0.03428,-0.216841 0.03514,-0.09514 0.09428,-0.161988 0.05828,-0.06514 0.135419,-0.09942 0.07799,-0.03428 0.161131,-0.03428 0.07542,0 0.133705,0.01628 0.05828,0.01543 0.122562,0.04885 v -0.414827 h 0.161131 z m -0.161131,-0.235697 v -0.549388 q -0.06514,-0.02914 -0.116563,-0.04028 -0.05142,-0.01114 -0.112277,-0.01114 -0.135419,0 -0.210842,0.09428 -0.07542,0.09428 -0.07542,0.267409 0,0.170559 0.05828,0.259695 0.05828,0.08828 0.186844,0.08828 0.06857,0 0.138847,-0.03 0.07028,-0.03086 0.131133,-0.07885 z m 1.279621,-0.226269 h -0.705377 q 0,0.08828 0.02657,0.154274 0.02657,0.06514 0.07285,0.107135 0.04457,0.04114 0.105421,0.06171 0.06171,0.02057 0.135419,0.02057 0.09771,0 0.196271,-0.03857 0.09942,-0.03943 0.141418,-0.07714 h 0.0086 v 0.175702 q -0.08142,0.03428 -0.166274,0.05742 -0.08485,0.02314 -0.178272,0.02314 -0.238269,0 -0.371973,-0.128562 -0.133704,-0.129419 -0.133704,-0.36683 0,-0.23484 0.127704,-0.37283 0.128562,-0.13799 0.33769,-0.13799 0.1937,0 0.298264,0.113135 0.105421,0.113134 0.105421,0.321405 z m -0.156846,-0.12342 q -8.57e-4,-0.126848 -0.06428,-0.196271 -0.06257,-0.06942 -0.191129,-0.06942 -0.129419,0 -0.206556,0.07628 -0.07628,0.07628 -0.08656,0.189414 z m 0.563959,0.585386 h -0.161131 v -1.333617 h 0.161131 z m 0.491964,-1.117632 h -0.181701 v -0.167131 h 0.181701 z m -0.01028,1.117632 h -0.161131 v -0.957358 h 0.161131 z m 1.119346,0 H 90.02282 v -0.545103 q 0,-0.06599 -0.0077,-0.123419 -0.0077,-0.05828 -0.02828,-0.09085 -0.02143,-0.036 -0.06171,-0.05314 -0.04028,-0.018 -0.104564,-0.018 -0.066,0 -0.13799,0.03257 -0.07199,0.03257 -0.13799,0.08314 v 0.714805 h -0.161131 v -0.957358 h 0.161131 v 0.106277 q 0.07542,-0.06257 0.155989,-0.09771 0.08057,-0.03514 0.165416,-0.03514 0.155132,0 0.236555,0.09342 0.08142,0.09342 0.08142,0.269123 z m 1.086778,-0.108849 q 0,0.243411 -0.110563,0.357402 -0.110564,0.113992 -0.340261,0.113992 -0.07628,0 -0.149132,-0.01114 -0.072,-0.01028 -0.142275,-0.03 v -0.164559 h 0.0086 q 0.03943,0.01543 0.125134,0.03771 0.08571,0.02314 0.171416,0.02314 0.08228,0 0.136276,-0.01971 0.054,-0.01971 0.08399,-0.05485 0.03,-0.03343 0.04285,-0.08056 0.01286,-0.04714 0.01286,-0.105421 v -0.08742 q -0.07285,0.05828 -0.139704,0.08742 -0.066,0.02828 -0.168845,0.02828 -0.171416,0 -0.272551,-0.12342 -0.100279,-0.124277 -0.100279,-0.349689 0,-0.123419 0.03428,-0.212555 0.03514,-0.08999 0.09514,-0.155132 0.05571,-0.06085 0.135419,-0.09428 0.07971,-0.03428 0.15856,-0.03428 0.08314,0 0.138847,0.01714 0.05657,0.01628 0.119134,0.05057 l 0.01028,-0.04114 h 0.150846 z m -0.161131,-0.154275 v -0.521961 q -0.06428,-0.02914 -0.119991,-0.04114 -0.05485,-0.01286 -0.109707,-0.01286 -0.132847,0 -0.209127,0.08914 -0.07628,0.08914 -0.07628,0.258838 0,0.161131 0.05657,0.244268 0.05657,0.08314 0.187701,0.08314 0.07028,0 0.140561,-0.02657 0.07114,-0.02743 0.130276,-0.07285 z"
       id="text2-4-3"
       aria-label="Modeling" />
    <rect
       style="fill:#ff1a19;fill-opacity:1;stroke:#000000;stroke-width:0.371434;stroke-dasharray:none;stroke-opacity:1"
       id="rect2-5-72"
       width="19.262007"
       height="6.4861856"
       x="52.868999"
       y="68.407997"
       rx="1.1" />
    <path
       style="font-size:1.7553px;text-align:center;text-anchor:middle;stroke-width:0.276425"
       d="M 58.933266,72.356041 H 58.09247 v -1.276192 h 0.840796 v 0.150846 h -0.671094 v 0.349688 h 0.671094 v 0.150847 h -0.671094 v 0.473965 h 0.671094 z m 1.084206,-0.957359 -0.3874,0.957359 h -0.161988 l -0.384829,-0.957359 h 0.174844 l 0.29655,0.761945 0.293979,-0.761945 z m 0.920504,0.957359 h -0.160274 v -0.101993 q -0.02143,0.01457 -0.05828,0.04114 -0.036,0.02571 -0.07028,0.04114 -0.04028,0.01971 -0.09256,0.03257 -0.05228,0.01371 -0.122563,0.01371 -0.129419,0 -0.219412,-0.08571 -0.08999,-0.08571 -0.08999,-0.218555 0,-0.108849 0.04628,-0.175701 0.04714,-0.06771 0.133704,-0.106278 0.08742,-0.03857 0.209985,-0.05228 0.122562,-0.01371 0.263123,-0.02057 v -0.02486 q 0,-0.05485 -0.01971,-0.09085 -0.01886,-0.036 -0.05485,-0.05657 -0.03428,-0.01971 -0.08228,-0.02657 -0.048,-0.0069 -0.100279,-0.0069 -0.06342,0 -0.141418,0.01714 -0.07799,0.01628 -0.161131,0.048 h -0.0086 v -0.163703 q 0.04714,-0.01286 0.136276,-0.02828 0.08914,-0.01543 0.175701,-0.01543 0.101136,0 0.175702,0.01714 0.07542,0.01628 0.130276,0.05657 0.054,0.03943 0.08228,0.101993 0.02828,0.06257 0.02828,0.155131 z m -0.160274,-0.235697 v -0.266552 q -0.07371,0.0043 -0.173987,0.01286 -0.09942,0.0086 -0.157703,0.02486 -0.06942,0.01971 -0.112277,0.06171 -0.04285,0.04114 -0.04285,0.113992 0,0.08228 0.04971,0.124277 0.04971,0.04114 0.151703,0.04114 0.08485,0 0.155131,-0.03257 0.07028,-0.03343 0.130276,-0.07971 z m 0.633383,0.235697 h -0.161131 v -1.333617 h 0.161131 z m 1.11249,0 h -0.161132 v -0.106278 q -0.08142,0.06428 -0.155988,0.09856 -0.07457,0.03428 -0.164559,0.03428 -0.150847,0 -0.23484,-0.09171 -0.08399,-0.09256 -0.08399,-0.270837 v -0.621384 h 0.161131 v 0.545103 q 0,0.07285 0.0069,0.125134 0.0069,0.05143 0.02914,0.08828 0.02314,0.03771 0.06,0.05485 0.03685,0.01714 0.107135,0.01714 0.06257,0 0.136276,-0.03257 0.07456,-0.03257 0.138846,-0.08314 v -0.714805 h 0.161132 z m 1.061065,0 h -0.160274 v -0.101993 q -0.02143,0.01457 -0.05828,0.04114 -0.036,0.02571 -0.07028,0.04114 -0.04028,0.01971 -0.09256,0.03257 -0.05228,0.01371 -0.122562,0.01371 -0.12942,0 -0.219413,-0.08571 -0.08999,-0.08571 -0.08999,-0.218555 0,-0.108849 0.04628,-0.175701 0.04714,-0.06771 0.133704,-0.106278 0.08742,-0.03857 0.209985,-0.05228 0.122562,-0.01371 0.263124,-0.02057 v -0.02486 q 0,-0.05485 -0.01971,-0.09085 -0.01886,-0.036 -0.05485,-0.05657 -0.03428,-0.01971 -0.08228,-0.02657 -0.048,-0.0069 -0.100278,-0.0069 -0.06342,0 -0.141419,0.01714 -0.07799,0.01628 -0.161131,0.048 h -0.0086 v -0.163703 q 0.04714,-0.01286 0.136275,-0.02828 0.08914,-0.01543 0.175702,-0.01543 0.101135,0 0.175701,0.01714 0.07542,0.01628 0.130276,0.05657 0.054,0.03943 0.08228,0.101993 0.02828,0.06257 0.02828,0.155131 z m -0.160274,-0.235697 v -0.266552 q -0.07371,0.0043 -0.173988,0.01286 -0.09942,0.0086 -0.157702,0.02486 -0.06942,0.01971 -0.112278,0.06171 -0.04285,0.04114 -0.04285,0.113992 0,0.08228 0.04971,0.124277 0.04971,0.04114 0.151703,0.04114 0.08485,0 0.155131,-0.03257 0.07028,-0.03343 0.130277,-0.07971 z m 0.967643,0.227126 q -0.04543,0.012 -0.09942,0.01971 -0.05314,0.0077 -0.09514,0.0077 -0.146561,0 -0.222841,-0.07885 -0.07628,-0.07885 -0.07628,-0.252838 v -0.509106 h -0.108849 v -0.135419 h 0.108849 V 71.12356 h 0.161131 v 0.275122 h 0.332547 v 0.135419 h -0.332547 v 0.436254 q 0,0.07542 0.0034,0.118277 0.0034,0.042 0.024,0.07885 0.01886,0.03428 0.05142,0.05057 0.03343,0.01543 0.101135,0.01543 0.03943,0 0.08228,-0.01114 0.04285,-0.012 0.06171,-0.01971 h 0.0086 z m 0.367688,-1.109061 h -0.181701 v -0.167131 h 0.181701 z m -0.01028,1.117632 h -0.161131 v -0.957359 h 0.161131 z m 1.134774,-0.478251 q 0,0.233983 -0.119991,0.369402 -0.119992,0.135418 -0.321405,0.135418 -0.203128,0 -0.32312,-0.135418 -0.119134,-0.135419 -0.119134,-0.369402 0,-0.233983 0.119134,-0.369401 0.119992,-0.136276 0.32312,-0.136276 0.201413,0 0.321405,0.136276 0.119991,0.135418 0.119991,0.369401 z m -0.166274,0 q 0,-0.185986 -0.07285,-0.27598 -0.07285,-0.09085 -0.20227,-0.09085 -0.131134,0 -0.203986,0.09085 -0.07199,0.08999 -0.07199,0.27598 0,0.179987 0.07285,0.273409 0.07285,0.09256 0.203128,0.09256 0.128562,0 0.201413,-0.09171 0.07371,-0.09257 0.07371,-0.274266 z m 1.216197,0.478251 h -0.161131 v -0.545103 q 0,-0.06599 -0.0077,-0.12342 -0.0077,-0.05828 -0.02828,-0.09085 -0.02143,-0.036 -0.06171,-0.05314 -0.04028,-0.018 -0.104564,-0.018 -0.066,0 -0.13799,0.03257 -0.072,0.03257 -0.13799,0.08314 v 0.714805 h -0.161131 v -0.957359 h 0.161131 v 0.106278 q 0.07542,-0.06257 0.155989,-0.09771 0.08057,-0.03514 0.165416,-0.03514 0.155132,0 0.236554,0.09342 0.08142,0.09342 0.08142,0.269123 z"
       id="text2-4-7"
       aria-label="Evaluation" />
    <path
       id="rect4"
       style="fill:none;stroke:#000000;stroke-width:0.25;stroke-dasharray:none;stroke-opacity:1;marker-start:url(#marker5);marker-end:url(#marker5)"
       d="m 73.139054,28.349458 h 3.721891"
       sodipodi:nodetypes="cc" />
    <path
       id="rect4-0"
       style="fill:none;stroke:#000000;stroke-width:0.25;stroke-dasharray:none;stroke-opacity:1;marker-end:url(#marker5-9)"
       d="m 92.174575,33.514344 6.482227,11.227548"
       sodipodi:nodetypes="cc" />
    <path
       id="rect4-0-5"
       style="fill:none;stroke:#000000;stroke-width:0.25;stroke-dasharray:none;stroke-opacity:1;marker-start:url(#marker5-9-5);marker-end:url(#marker5-9-5)"
       d="M 92.174572,66.48584 98.656799,55.258292"
       sodipodi:nodetypes="cc" />
    <path
       id="rect4-3"
       style="fill:none;stroke:#000000;stroke-width:0.25;stroke-dasharray:none;stroke-opacity:1;marker-end:url(#marker5-8)"
       d="M 76.860953,71.651093 H 73.139062"
       sodipodi:nodetypes="cc" />
    <path
       id="rect4-0-4"
       style="fill:none;stroke:#000000;stroke-width:0.25;stroke-dasharray:none;stroke-opacity:1;marker-end:url(#marker5-9-1)"
       d="M 57.825432,66.486207 51.343205,55.258659"
       sodipodi:nodetypes="cc" />
    <path
       id="rect4-0-5-0"
       style="fill:none;stroke:#000000;stroke-width:0.25;stroke-dasharray:none;stroke-opacity:1;marker-end:url(#marker5-9-5-1)"
       d="M 65,65.354453 V 35.076444"
       sodipodi:nodetypes="cc" />
    <ellipse
       style="fill:#3b2abf;fill-opacity:1;stroke:#000000;stroke-width:0.199507;stroke-dasharray:none;stroke-opacity:1"
       id="path6-4-8"
       cx="75.000244"
       cy="51.122646"
       rx="6.7704916"
       ry="1.832332" />
    <ellipse
       style="font-variation-settings:normal;vector-effect:none;fill:#3b2abf;fill-opacity:1;stroke:#000000;stroke-width:0.199507;stroke-linecap:butt;stroke-linejoin:miter;stroke-miterlimit:4;stroke-dasharray:none;stroke-dashoffset:0;stroke-opacity:1;-inkscape-stroke:none;stop-color:#000000"
       id="path6-4"
       cx="75.000244"
       cy="48.294365"
       rx="6.7704916"
       ry="1.832332" />
    <ellipse
       style="fill:#3b2abf;fill-opacity:1;stroke:#000000;stroke-width:0.199507;stroke-dasharray:none;stroke-opacity:1"
       id="path6"
       cx="75.000244"
       cy="45.466087"
       rx="6.7704916"
       ry="1.832332" />
    <path
       d="m 73.487157,55.266284 q 0,0.31471 -0.137976,0.570508 -0.136426,0.255798 -0.364319,0.396875 -0.15813,0.09767 -0.353467,0.141077 -0.193787,0.04341 -0.511597,0.04341 h -0.58291 v -2.308386 h 0.576709 q 0.337964,0 0.536402,0.04961 0.199987,0.04806 0.337963,0.133325 0.235645,0.147278 0.36742,0.392224 0.131775,0.244947 0.131775,0.58136 z m -0.320911,-0.0047 q 0,-0.271301 -0.09457,-0.457336 -0.09457,-0.186035 -0.282153,-0.293005 -0.136426,-0.07751 -0.289905,-0.106971 -0.153479,-0.03101 -0.367419,-0.03101 h -0.288355 v 1.781287 h 0.288355 q 0.221692,0 0.386023,-0.03256 0.165881,-0.03256 0.303857,-0.120923 0.172083,-0.110071 0.257349,-0.289905 0.08682,-0.179834 0.08682,-0.449585 z m 2.139404,1.156519 h -0.289904 v -0.184485 q -0.03876,0.02636 -0.10542,0.07441 -0.06511,0.04651 -0.127124,0.07441 -0.07286,0.03566 -0.167432,0.05891 -0.09457,0.02481 -0.221692,0.02481 -0.234094,0 -0.396875,-0.155029 -0.162781,-0.15503 -0.162781,-0.395325 0,-0.196887 0.08372,-0.31781 0.08527,-0.122473 0.241846,-0.192236 0.15813,-0.06976 0.379822,-0.09457 0.221691,-0.02481 0.47594,-0.03721 v -0.04496 q 0,-0.09922 -0.03566,-0.164331 -0.03411,-0.06511 -0.09922,-0.102319 -0.06201,-0.03566 -0.148828,-0.04806 -0.08682,-0.0124 -0.181384,-0.0124 -0.114722,0 -0.255799,0.03101 -0.141076,0.02946 -0.291455,0.08682 h -0.0155 v -0.296106 q 0.08527,-0.02325 0.246497,-0.05116 0.16123,-0.02791 0.31781,-0.02791 0.182935,0 0.31781,0.03101 0.136426,0.02945 0.235645,0.102319 0.09767,0.07131 0.148828,0.184485 0.05116,0.113171 0.05116,0.280603 z M 75.015746,55.991821 V 55.50968 q -0.133326,0.0078 -0.31471,0.02325 -0.179834,0.0155 -0.285254,0.04496 -0.125574,0.03566 -0.203088,0.111621 -0.07752,0.07441 -0.07752,0.206189 0,0.148828 0.08992,0.224793 0.08992,0.07441 0.274402,0.07441 0.153479,0 0.280603,-0.05891 0.127124,-0.06046 0.235645,-0.144178 z m 1.750281,0.410828 q -0.08217,0.0217 -0.179834,0.03566 -0.09612,0.01395 -0.172083,0.01395 -0.2651,0 -0.403076,-0.142627 -0.137976,-0.142627 -0.137976,-0.457336 v -0.920874 h -0.196887 v -0.244946 h 0.196887 v -0.497644 h 0.291455 v 0.497644 h 0.601514 v 0.244946 h -0.601514 v 0.789099 q 0,0.136426 0.0062,0.21394 0.0062,0.07596 0.04341,0.142627 0.03411,0.06201 0.09302,0.09147 0.06046,0.02791 0.182934,0.02791 0.07131,0 0.148829,-0.02015 0.07751,-0.0217 0.111621,-0.03566 h 0.0155 z m 1.69757,0.0155 h -0.289905 v -0.184485 q -0.03876,0.02636 -0.10542,0.07441 -0.06511,0.04651 -0.127124,0.07441 -0.07286,0.03566 -0.167431,0.05891 -0.09457,0.02481 -0.221692,0.02481 -0.234094,0 -0.396875,-0.155029 -0.162781,-0.15503 -0.162781,-0.395325 0,-0.196887 0.08372,-0.31781 0.08527,-0.122473 0.241846,-0.192236 0.15813,-0.06976 0.379821,-0.09457 0.221692,-0.02481 0.47594,-0.03721 v -0.04496 q 0,-0.09922 -0.03566,-0.164331 -0.03411,-0.06511 -0.09922,-0.102319 -0.06201,-0.03566 -0.148828,-0.04806 -0.08682,-0.0124 -0.181385,-0.0124 -0.114721,0 -0.255798,0.03101 -0.141077,0.02946 -0.291455,0.08682 h -0.0155 v -0.296106 q 0.08527,-0.02325 0.246497,-0.05116 0.16123,-0.02791 0.31781,-0.02791 0.182934,0 0.31781,0.03101 0.136426,0.02945 0.235644,0.102319 0.09767,0.07131 0.148828,0.184485 0.05116,0.113171 0.05116,0.280603 z M 78.173692,55.991821 V 55.50968 q -0.133325,0.0078 -0.314709,0.02325 -0.179834,0.0155 -0.285254,0.04496 -0.125574,0.03566 -0.203088,0.111621 -0.07752,0.07441 -0.07752,0.206189 0,0.148828 0.08992,0.224793 0.08992,0.07441 0.274402,0.07441 0.153479,0 0.280603,-0.05891 0.127124,-0.06046 0.235644,-0.144178 z"
       id="text6"
       style="font-size:3.175px;text-align:center;text-anchor:middle;stroke-width:0.172763"
       aria-label="Data" />
  </g>
</svg>
